<!-- Generator: Adobe Illustrator 18.1.0, SVG Export Plug-In  -->
<svg version="1.1"
	 xmlns="http://www.w3.org/2000/svg" xmlns:xlink="http://www.w3.org/1999/xlink" xmlns:a="http://ns.adobe.com/AdobeSVGViewerExtensions/3.0/"
	 x="0px" y="0px" width="137.225px" height="47.093px" viewBox="0 0 137.225 47.093" enable-background="new 0 0 137.225 47.093"
	 xml:space="preserve">
<defs>
</defs>
<g>
	<polygon fill="#FFFFFF" points="33.438,46.865 28.075,39.39 28.075,46.865 27.49,46.865 27.49,38.505 28.114,38.505 33.323,45.761 
		33.323,38.505 33.918,38.505 33.918,46.865 	"/>
	<polygon fill="none" stroke="#FFFFFF" stroke-width="0.25" stroke-miterlimit="10" points="33.438,46.865 28.075,39.39 
		28.075,46.865 27.49,46.865 27.49,38.505 28.114,38.505 33.323,45.761 33.323,38.505 33.918,38.505 33.918,46.865 	"/>
	<path fill="#FFFFFF" d="M46.663,46.948l-1.204-2.943h-4.007L40.3,46.865h-0.635l3.474-8.406h0.658l3.476,8.358L46.663,46.948z
		 M43.456,39.112l-1.774,4.374h3.575L43.456,39.112z"/>
	<path fill="none" stroke="#FFFFFF" stroke-width="0.25" stroke-miterlimit="10" d="M46.663,46.948l-1.204-2.943h-4.007L40.3,46.865
		h-0.635l3.474-8.406h0.658l3.476,8.358L46.663,46.948z M43.456,39.112l-1.774,4.374h3.575L43.456,39.112z"/>
	<rect x="54.094" y="38.505" fill="#FFFFFF" width="0.608" height="8.359"/>
	
		<rect x="54.094" y="38.505" fill="none" stroke="#FFFFFF" stroke-width="0.25" stroke-miterlimit="10" width="0.608" height="8.359"/>
	<polygon fill="#FFFFFF" points="62.613,46.865 62.613,38.505 63.224,38.505 63.224,46.344 66.774,46.344 66.862,46.865 	"/>
	<polygon fill="none" stroke="#FFFFFF" stroke-width="0.25" stroke-miterlimit="10" points="62.613,46.865 62.613,38.505 
		63.224,38.505 63.224,46.344 66.774,46.344 66.862,46.865 	"/>
	<path fill="#FFFFFF" d="M82.64,46.961c-1.015,0-1.749-0.23-2.233-0.496l0.091-0.595c0.494,0.292,1.278,0.57,2.18,0.57
		c1.116,0,2.002-0.654,2.002-1.697c0-0.871-0.504-1.368-1.837-1.914c-1.7-0.691-2.295-1.248-2.295-2.41
		c0-1.187,1.053-2.012,2.383-2.012c0.813,0,1.459,0.171,1.89,0.412l-0.088,0.583c-0.509-0.28-1.08-0.474-1.827-0.474
		c-1.053,0-1.737,0.644-1.737,1.467c0,0.872,0.495,1.284,1.864,1.841c1.561,0.629,2.282,1.271,2.282,2.472
		C85.313,46.126,84.085,46.961,82.64,46.961"/>
	<path fill="none" stroke="#FFFFFF" stroke-width="0.25" stroke-miterlimit="10" d="M82.64,46.961c-1.015,0-1.749-0.23-2.233-0.496
		l0.091-0.595c0.494,0.292,1.278,0.57,2.18,0.57c1.116,0,2.002-0.654,2.002-1.697c0-0.871-0.504-1.368-1.837-1.914
		c-1.7-0.691-2.295-1.248-2.295-2.41c0-1.187,1.053-2.012,2.383-2.012c0.813,0,1.459,0.171,1.89,0.412l-0.088,0.583
		c-0.509-0.28-1.08-0.474-1.827-0.474c-1.053,0-1.737,0.644-1.737,1.467c0,0.872,0.495,1.284,1.864,1.841
		c1.561,0.629,2.282,1.271,2.282,2.472C85.313,46.126,84.085,46.961,82.64,46.961z"/>
	<path fill="#FFFFFF" d="M94.346,43.231H93.13v3.633h-0.608v-8.359h2.027c1.688,0,2.789,0.837,2.789,2.301
		C97.338,42.395,96.045,43.231,94.346,43.231 M94.5,39.028h-1.37v3.682h1.243c1.444,0,2.331-0.629,2.331-1.877
		C96.704,39.646,95.932,39.028,94.5,39.028"/>
	<path fill="none" stroke="#FFFFFF" stroke-width="0.25" stroke-miterlimit="10" d="M94.346,43.231H93.13v3.633h-0.608v-8.359h2.027
		c1.688,0,2.789,0.837,2.789,2.301C97.338,42.395,96.045,43.231,94.346,43.231z M94.5,39.028h-1.37v3.682h1.243
		c1.444,0,2.331-0.629,2.331-1.877C96.704,39.646,95.932,39.028,94.5,39.028z"/>
	<path fill="#FFFFFF" d="M108.832,46.948l-1.206-2.943h-4.006l-1.152,2.859h-0.635l3.475-8.406h0.659l3.474,8.358L108.832,46.948z
		 M105.624,39.112l-1.775,4.374h3.576L105.624,39.112z"/>
	<path fill="none" stroke="#FFFFFF" stroke-width="0.25" stroke-miterlimit="10" d="M108.832,46.948l-1.206-2.943h-4.006
		l-1.152,2.859h-0.635l3.475-8.406h0.659l3.474,8.358L108.832,46.948z M105.624,39.112l-1.775,4.374h3.576L105.624,39.112z"/>
	<path fill="#FFFFFF" d="M26.574,13.709c0-0.616,0.078-1.168,0.234-1.65c0.155-0.482,0.416-1.005,0.785-1.569
		c0.368-0.564,0.813-1.035,1.331-1.416c0.521-0.378,1.241-0.714,2.163-1.006c0.648-0.198,1.465-0.299,2.457-0.299
		c0.665,0,1.317,0.085,1.957,0.255c0.636,0.17,1.214,0.407,1.737,0.71c0.52,0.303,1.041,0.769,1.562,1.401
		c0.36,0.437,0.634,0.907,0.818,1.41c0.24,0.661,0.36,1.344,0.36,2.048c0,0.8-0.08,1.463-0.241,1.991
		c-0.162,0.528-0.434,1.051-0.815,1.566c-0.298,0.4-0.808,0.86-1.533,1.382c-0.482,0.353-1.082,0.636-1.8,0.852
		c-0.718,0.214-1.492,0.322-2.323,0.322c-0.845,0-1.596-0.095-2.256-0.282c-0.662-0.188-1.212-0.417-1.652-0.687
		c-0.441-0.27-0.895-0.669-1.362-1.197c-0.466-0.527-0.819-1.11-1.062-1.746C26.694,15.158,26.574,14.463,26.574,13.709
		 M33.182,19.369c0.535,0,1.087-0.071,1.662-0.213c0.574-0.143,1.084-0.38,1.527-0.711c0.445-0.33,0.792-0.705,1.044-1.127
		c0.249-0.42,0.451-0.963,0.605-1.623c0.15-0.661,0.227-1.323,0.227-1.985c0-0.823-0.128-1.639-0.382-2.445
		c-0.197-0.613-0.516-1.161-0.96-1.643c-0.446-0.482-0.98-0.855-1.61-1.119c-0.628-0.264-1.299-0.396-2.009-0.396
		c-0.578,0-1.143,0.091-1.695,0.272c-0.551,0.182-1.005,0.414-1.362,0.695c-0.354,0.284-0.685,0.683-0.989,1.203
		c-0.305,0.518-0.536,1.09-0.695,1.715c-0.158,0.624-0.238,1.176-0.238,1.655c0,0.503,0.08,1.074,0.238,1.71
		c0.159,0.637,0.377,1.189,0.652,1.657c0.277,0.467,0.617,0.881,1.02,1.242c0.402,0.361,0.855,0.636,1.357,0.828
		C32.075,19.274,32.611,19.369,33.182,19.369"/>
	<path fill="#FFFFFF" d="M47.508,8.297c0.052,0.4,0.077,0.631,0.077,0.69l-0.038,0.81c-0.014,0.346-0.029,0.567-0.048,0.665
		c-0.057,0.023-0.106,0.035-0.143,0.035l-0.087-0.018c-0.202-0.849-0.548-1.468-1.033-1.856c-0.483-0.387-1.077-0.583-1.773-0.583
		c-0.724,0-1.318,0.195-1.782,0.583c-0.462,0.388-0.694,0.841-0.694,1.354c0,0.396,0.16,0.756,0.486,1.083
		c0.323,0.328,1.151,0.817,2.484,1.471c1.017,0.5,1.743,0.911,2.181,1.23c0.438,0.318,0.769,0.688,0.989,1.106
		c0.222,0.42,0.336,0.887,0.336,1.402c0,0.65-0.179,1.26-0.531,1.831c-0.352,0.57-0.826,1-1.424,1.289
		c-0.596,0.288-1.386,0.431-2.37,0.431c-0.856,0-1.678-0.13-2.465-0.391c-0.465-0.157-0.748-0.286-0.849-0.382
		c-0.101-0.097-0.151-0.199-0.151-0.309c0-0.068,0.006-0.152,0.017-0.254c0.09-0.716,0.139-1.306,0.146-1.766
		c0.012-0.285,0.033-0.451,0.066-0.5c0.024-0.042,0.071-0.065,0.142-0.065c0.058,0,0.104,0.02,0.139,0.06
		c0.034,0.04,0.059,0.113,0.071,0.222c0.07,0.745,0.432,1.414,1.085,2.002c0.646,0.588,1.38,0.882,2.199,0.882
		c0.501,0,0.966-0.098,1.387-0.3c0.421-0.199,0.751-0.489,0.989-0.868c0.237-0.379,0.356-0.747,0.356-1.106
		c0-0.491-0.179-0.94-0.542-1.346c-0.362-0.406-1.088-0.881-2.179-1.425c-1.093-0.542-1.805-0.938-2.135-1.186
		c-0.532-0.406-0.933-0.837-1.199-1.292c-0.197-0.351-0.296-0.761-0.296-1.228c0-0.844,0.351-1.558,1.049-2.143
		c0.697-0.586,1.634-0.878,2.808-0.878c0.646,0,1.205,0.069,1.676,0.209C46.794,7.87,47.146,8.049,47.508,8.297"/>
	<path fill="#FFFFFF" d="M49.203,19.232c0.139-0.054,0.281-0.087,0.427-0.099c0.971-0.061,1.525-0.171,1.667-0.333
		c0.139-0.161,0.208-0.939,0.208-2.336l-0.009-0.956v-1l-0.039-1.102l0.02-0.647l-0.008-0.71v-0.837l-0.02-0.373l0.02-0.474
		c0.007-0.109,0.008-0.237,0.008-0.383c0-0.382-0.02-0.786-0.056-1.21c-0.026-0.086-0.062-0.168-0.104-0.247
		c-0.236-0.116-0.616-0.192-1.14-0.232c-0.523-0.04-0.821-0.083-0.889-0.132c-0.051-0.037-0.081-0.131-0.085-0.282h0.8l2.527,0.054
		c0.647,0,1.514-0.018,2.594-0.054c0,0.097-0.008,0.187-0.019,0.272c-0.126,0.031-0.34,0.064-0.638,0.101
		c-0.603,0.066-0.971,0.129-1.104,0.19c-0.084,0.031-0.144,0.082-0.181,0.156c-0.063,0.109-0.102,0.312-0.113,0.609l-0.05,1.175
		l0.039,4.051v1.602c-0.014,0.504-0.019,0.847-0.019,1.03c0,0.68,0.018,1.114,0.051,1.302c0.035,0.188,0.097,0.323,0.182,0.405
		c0.087,0.081,0.228,0.147,0.425,0.195c0.29,0.067,0.521,0.104,0.684,0.11c0.354,0.013,0.581,0.06,0.677,0.145
		c0.02,0.079,0.03,0.146,0.03,0.2v0.074c-0.581,0.018-1.007,0.027-1.28,0.027c-0.16,0-0.441-0.009-0.849-0.027l-1.316,0.018
		l-2.242-0.009H49.22L49.203,19.232z"/>
	<path fill="#FFFFFF" d="M79.571,19.385c0.063-0.053,0.116-0.087,0.162-0.098c0.107-0.03,0.29-0.055,0.552-0.073
		c0.615-0.036,0.997-0.09,1.143-0.164c0.089-0.122,0.135-0.291,0.135-0.51l-0.011-0.638l0.011-2.315l-0.021-1.094l0.01-2.287
		l-0.048-2.598c-0.006-0.62-0.048-0.97-0.123-1.047c-0.115-0.116-0.455-0.184-1.02-0.202c-0.242-0.005-0.453-0.024-0.638-0.054
		C79.64,8.265,79.6,8.21,79.6,8.142c0-0.048,0.018-0.106,0.049-0.172c0.056-0.03,0.107-0.046,0.151-0.046
		c0.089,0,0.196,0.004,0.323,0.009c0.375,0.037,0.762,0.055,1.161,0.055L81.99,7.97l1.675,0.036c0.838,0,1.492-0.008,1.961-0.026
		c0.469-0.017,0.789-0.027,0.954-0.027c0.146,0,0.507,0.012,1.084,0.036l1.353-0.009l0.162,0.026l0.789-0.026l0.098,0.045
		c0.029,0.049,0.053,0.1,0.065,0.155c0,0.085-0.014,0.215-0.044,0.39c-0.026,0.176-0.044,0.286-0.044,0.328
		c0,0.63,0.024,1.164,0.069,1.601c-0.006,0.038-0.025,0.061-0.058,0.074c-0.067,0-0.13-0.01-0.187-0.028
		c-0.068-0.114-0.163-0.318-0.28-0.609c-0.118-0.291-0.294-0.629-0.528-1.011C88.9,8.67,88.776,8.519,88.688,8.47
		c-0.089-0.048-0.273-0.073-0.552-0.073c-0.059,0-0.346-0.005-0.868-0.018C87.127,8.374,86.99,8.37,86.856,8.37l-2.714,0.055h-0.239
		c-0.348,0-0.558,0.043-0.628,0.127c-0.108,0.147-0.161,0.574-0.161,1.284c0,0.072,0.015,0.801,0.048,2.184v1.264
		c0.069,0.019,0.144,0.026,0.228,0.026h0.161c0.107,0,0.267,0.004,0.477,0.01c0.33,0.011,0.553,0.018,0.667,0.018
		c0.074,0,0.141-0.003,0.198-0.009c0.687-0.024,1.57-0.037,2.647-0.037c0.338-0.055,0.533-0.117,0.591-0.19
		c0.096-0.11,0.168-0.394,0.215-0.856c0.047-0.461,0.153-0.721,0.317-0.783c0.084,0,0.161,0.015,0.229,0.045
		c0.014,0.049,0.02,0.095,0.02,0.137c0,0.042-0.007,0.113-0.02,0.209c-0.031,0.225-0.047,0.929-0.047,2.112
		c0,0.314,0.02,0.667,0.054,1.054c0.033,0.389,0.052,0.598,0.052,0.629c0,0.054-0.009,0.127-0.029,0.218
		c-0.05,0.023-0.09,0.036-0.122,0.036H88.73c-0.102-0.169-0.198-0.435-0.295-0.792c-0.165-0.612-0.338-0.996-0.519-1.151
		c-0.182-0.153-0.475-0.231-0.881-0.231c-0.09,0-0.251,0.004-0.486,0.014c-0.233,0.009-0.584,0.013-1.047,0.013h-0.619
		c-0.881,0-1.458,0.019-1.732,0.055l-0.009,0.301l0.009,1.676l-0.009,1.057l0.009,1.03c0.006,0.621,0.048,0.978,0.124,1.076
		c0.107,0.134,0.342,0.201,0.704,0.201l0.581-0.01c0.052,0,0.25,0.005,0.596,0.015c0.345,0.009,0.771,0.014,1.281,0.014
		c1.224,0,2.039-0.051,2.445-0.151c0.407-0.102,0.74-0.279,1.006-0.534c0.263-0.256,0.594-0.806,0.994-1.651
		c0.12-0.25,0.24-0.375,0.361-0.375c0.058,0,0.122,0.024,0.191,0.073c-0.185,0.601-0.289,0.994-0.315,1.183
		c-0.068,0.424-0.109,0.858-0.123,1.3c0,0.2-0.051,0.367-0.151,0.5h-0.211l-2.676,0.028l-1.199-0.01l-2.856,0.036H82.74
		c-0.144,0-0.28,0.003-0.409,0.01c-1.142,0.048-1.982,0.074-2.521,0.074c-0.096,0-0.162-0.016-0.196-0.045
		c-0.035-0.031-0.054-0.074-0.054-0.133L79.571,19.385z"/>
	<path fill="#FFFFFF" d="M91.51,19.579c0.006-0.091,0.032-0.174,0.075-0.247c0.497-0.126,0.979-0.212,1.449-0.254
		c0.309-0.025,0.511-0.091,0.599-0.201c0.063-0.078,0.101-0.37,0.114-0.875l0.067-2.402l-0.01-1.631l0.01-2.129v-0.565
		c0.005-1.281-0.002-2.08-0.021-2.396c-0.007-0.06-0.03-0.145-0.076-0.254c-0.164-0.073-0.303-0.122-0.417-0.146
		c-0.111-0.024-0.61-0.112-1.497-0.265c-0.006-0.066-0.008-0.115-0.008-0.146c0-0.036,0.002-0.085,0.008-0.145
		c0.122,0,0.319,0.007,0.592,0.022l1.45,0.051l0.839,0.019l0.247-0.01c0.032,0,0.125,0.007,0.277,0.019
		c0.375,0,0.593-0.003,0.647-0.009l0.766-0.055c0.514,0,0.877,0.009,1.086,0.027c-0.007,0.109-0.027,0.227-0.067,0.355
		c-0.069,0.012-0.398,0.029-0.99,0.05c-0.59,0.021-0.93,0.056-1.018,0.104c-0.146,0.08-0.221,0.323-0.221,0.728
		c0,0.097-0.005,0.295-0.018,0.591v0.545l0.01,1.684v0.573l0.019,3.011l-0.028,2.566l0.01,0.564c0,0.183,0.032,0.294,0.093,0.337
		c0.161,0.005,0.627,0.012,1.401,0.018h0.648l1.646-0.055c0.432-0.011,0.738-0.053,0.924-0.123c0.184-0.069,0.491-0.274,0.925-0.614
		c0.258-0.217,0.462-0.443,0.608-0.672c0.031-0.05,0.085-0.122,0.162-0.219c0.121-0.158,0.283-0.473,0.484-0.947h0.315
		c-0.038,0.218-0.079,0.424-0.124,0.619c-0.186,0.854-0.313,1.568-0.38,2.138c-0.013,0.121-0.028,0.232-0.039,0.337l-3.562-0.101
		c-3.059,0-4.875,0.028-5.447,0.083c-0.177,0.012-0.364,0.018-0.561,0.018H91.51z"/>
	<path fill="#FFFFFF" d="M102.678,19.579c0.006-0.091,0.032-0.174,0.076-0.247c0.495-0.126,0.978-0.212,1.448-0.254
		c0.311-0.025,0.51-0.091,0.6-0.201c0.064-0.078,0.103-0.37,0.115-0.875l0.066-2.402l-0.01-1.631l0.01-2.129v-0.565
		c0.004-1.281,0-2.08-0.021-2.396c-0.005-0.06-0.031-0.145-0.076-0.254c-0.166-0.073-0.305-0.122-0.416-0.146
		c-0.111-0.024-0.61-0.112-1.497-0.265c-0.006-0.066-0.011-0.115-0.011-0.146c0-0.036,0.005-0.085,0.011-0.145
		c0.119,0,0.318,0.007,0.592,0.022l1.45,0.051l0.838,0.019l0.248-0.01c0.032,0,0.124,0.007,0.276,0.019
		c0.375,0,0.592-0.003,0.648-0.009l0.763-0.055c0.515,0,0.879,0.009,1.088,0.027c-0.008,0.109-0.028,0.227-0.067,0.355
		c-0.07,0.012-0.399,0.029-0.989,0.05c-0.592,0.021-0.932,0.056-1.02,0.104c-0.146,0.08-0.219,0.323-0.219,0.728
		c0,0.097-0.007,0.295-0.019,0.591v0.545l0.009,1.684v0.573l0.019,3.011l-0.027,2.566l0.009,0.564c0,0.183,0.032,0.294,0.096,0.337
		c0.158,0.005,0.625,0.012,1.399,0.018h0.648l1.646-0.055c0.432-0.011,0.739-0.053,0.922-0.123c0.185-0.069,0.493-0.274,0.925-0.614
		c0.261-0.217,0.464-0.443,0.609-0.672c0.032-0.05,0.087-0.122,0.163-0.219c0.119-0.158,0.281-0.473,0.486-0.947h0.311
		c-0.035,0.218-0.077,0.424-0.121,0.619c-0.186,0.854-0.311,1.568-0.382,2.138c-0.013,0.121-0.025,0.232-0.037,0.337l-3.562-0.101
		c-3.059,0-4.875,0.028-5.446,0.083c-0.18,0.012-0.365,0.018-0.562,0.018H102.678z"/>
	<path fill="#FFFFFF" d="M113.638,19.232c0.089-0.048,0.169-0.071,0.238-0.071h0.219c0.044,0,0.119-0.004,0.228-0.01
		c0.488-0.042,0.778-0.086,0.866-0.128c0.222-0.116,0.414-0.315,0.571-0.599c0.33-0.619,0.702-1.496,1.116-2.629
		c0.195-0.541,0.318-0.867,0.37-0.983c0.159-0.365,0.311-0.747,0.457-1.146l0.896-2.393c0.139-0.376,0.476-1.238,1.008-2.584
		c0.133-0.34,0.295-0.795,0.486-1.365l0.278-0.019l0.335,0.009c0.272,0.517,0.514,1.071,0.722,1.665
		c0.115,0.315,0.301,0.786,0.561,1.411l1.447,3.738l0.77,2.029c0.407,1.152,0.672,1.86,0.8,2.125
		c0.128,0.264,0.244,0.438,0.351,0.523c0.032,0.024,0.151,0.06,0.357,0.109c0.207,0.048,0.352,0.085,0.434,0.108
		c0.293,0.08,0.496,0.146,0.608,0.202c0.025,0.066,0.039,0.117,0.039,0.152c0,0.031-0.009,0.077-0.027,0.138
		c-0.204,0.005-0.347,0.009-0.429,0.009c-0.324,0-0.896-0.009-1.715-0.027l-0.951-0.021l-1.152,0.013
		c-0.076,0-0.154-0.003-0.234-0.01c-0.078-0.006-0.146-0.01-0.202-0.01h-0.211c-0.069-0.005-0.133-0.024-0.191-0.054
		c0-0.086,0.016-0.167,0.049-0.246c0.075-0.036,0.146-0.059,0.208-0.064l1-0.063c0.261-0.013,0.456-0.046,0.592-0.102
		c0.037-0.109,0.057-0.19,0.057-0.246c0-0.11-0.083-0.392-0.248-0.847c-0.115-0.304-0.215-0.593-0.3-0.866
		c-0.085-0.274-0.423-1.174-1.014-2.698c-0.258-0.042-0.488-0.063-0.687-0.063l-2.036,0.018l-0.6-0.01
		c-0.216,0-0.453,0.014-0.715,0.046c-0.081,0.182-0.136,0.313-0.161,0.391l-0.84,2.502c-0.354,0.952-0.532,1.478-0.532,1.574
		c0,0.054,0.027,0.146,0.085,0.273c0.134,0.036,0.311,0.07,0.533,0.1l1.294,0.11c0.072,0.053,0.107,0.102,0.107,0.144
		c0,0.031-0.01,0.077-0.03,0.138c-0.286,0.004-0.504,0.008-0.655,0.008c-0.509,0-1.1-0.015-1.771-0.046
		c-0.311-0.013-0.534-0.018-0.667-0.018c-0.133,0-0.365,0.005-0.695,0.018c-0.216,0.013-0.372,0.019-0.466,0.019
		c-0.153,0-0.35-0.01-0.591-0.027v-0.056C113.6,19.363,113.613,19.306,113.638,19.232 M118.181,13.774
		c0.68,0.036,1.454,0.054,2.323,0.054c0.495,0,0.932-0.015,1.304-0.045c-0.063-0.236-0.136-0.457-0.218-0.663
		c-0.412-1.056-0.641-1.639-0.686-1.747l-0.864-2.101l-0.095-0.163c-0.039,0.072-0.178,0.384-0.421,0.936
		c-0.405,0.946-0.698,1.683-0.876,2.21c-0.084,0.236-0.17,0.471-0.258,0.706c-0.088,0.232-0.144,0.397-0.167,0.491
		c-0.021,0.094-0.054,0.189-0.099,0.286L118.181,13.774z"/>
	<path fill="#FFFFFF" d="M7.753,20.792c-1.872-1.062-2.808-2.46-2.808-4.164c0-2.069,1.258-4.276,3.773-6.707
		c2.193-2.124,4.914-4.025,8.191-5.729c3.099-1.593,5.673-2.517,7.779-2.767c0.526-0.056,1.081-0.084,1.579-0.084
		c1.463,0,2.545,0.28,3.188,0.839l0.38-0.363c0.03-0.112,0.117-0.112,0.206-0.084c0.117,0.028,0.144,0.112,0.144,0.195
		c0,0.056-0.144,0.252-0.379,0.531c0.292,0.336,0.409,0.867,0.409,1.594c0,1.453-0.409,2.655-1.813,4.135
		c-0.819,0.951-1.784,1.706-2.866,2.293c-0.06,0.028-0.205,0.028-0.498,0c-0.293-0.056-0.467-0.139-0.467-0.196
		c0-1.005,0.555-2.403,1.666-4.08c0.849-1.313,1.696-2.403,2.515-3.241c-0.35-0.755-1.314-1.118-2.893-1.118
		c-0.44,0-0.908,0.028-1.464,0.111c-3.276,0.586-6.843,2.236-10.734,5.003C9.596,9.893,7.11,12.77,6.204,15.593
		c-0.147,0.475-0.206,0.896-0.206,1.369c0,1.37,0.615,2.488,1.844,3.354c1.432,0.978,3.421,1.454,6.024,1.397
		c2.954-0.055,6.025-0.726,9.184-1.929c2.926-1.146,5.266-2.459,7.079-4.052c0.117-0.14,0.206-0.195,0.321-0.195
		c0.088,0,0.117,0.029,0.117,0.14c0,0.083-0.058,0.168-0.206,0.307c-1.783,1.734-4.211,3.215-7.251,4.444
		c-3.246,1.286-6.347,1.985-9.272,1.9C11.497,22.301,9.449,21.797,7.753,20.792 M25.391,9.976c0.087,0.057,0.146,0.057,0.264,0
		c1.433-0.894,2.515-2.096,3.188-3.577c0.234-0.587,0.382-1.146,0.382-1.733c0-0.503-0.088-0.921-0.294-1.257
		c-0.731,0.726-1.491,1.704-2.193,2.99c-0.674,1.23-1.141,2.319-1.404,3.326C25.303,9.864,25.332,9.948,25.391,9.976"/>
	<path fill="#FFFFFF" d="M69.486,19.591c1.958,0.056,4.123-0.28,5.729-0.979c1.404-0.614,2.193-2.319,0.615-3.437
		c-1.023-0.754-4.299-1.454-5.558-1.621c-0.495,0.559-3.744,4.975-4.709,7.07c-0.381,0.727-0.671,0.839-0.381-0.055
		c0.497-1.51,2.984-5.226,4.271-7.099c-0.263-0.056-0.438-0.084-0.702-0.197c-0.644-0.223-0.525-0.754-0.263-0.782
		c0.353-0.028,1.171-0.084,1.667-0.224c1.755-2.292,3.392-5.142,4.183-6.764c0.176-0.334,0.439-1.144-0.087-1.228
		c-0.469-0.084,1.871-1.315,1.666-0.168c-0.293,1.593-3.832,6.764-4.737,8.077c1.667-0.278,8.041-1.704,10.323-3.52
		c1.463-1.147,2.866-3.215,0.439-4.947c-3.628-2.599-8.746-3.13-13.483-3.214c-1.082-0.027-7.371-0.419-8.95,2.543
		c-0.615,1.146,1.229,2.487,1.931,2.851c0.584,0.307,0.555,0.783-0.147,0.335c-1.314-0.754-3.479-1.984-2.574-3.522
		C60.183,0.196,67.906,0,68.402,0c5.294,0.084,9.914,0.335,14.038,3.074c2.692,1.789,1.99,4.332-0.496,5.926
		c-3.013,1.957-7.634,3.018-10.238,3.438c-0.496,0.083-0.496,0.392-0.027,0.446c2.426,0.308,4.532,1.453,5.176,2.069
		c1.814,1.704-0.116,3.103-1.433,3.968c-1.317,0.867-3.275,1.343-5.733,1.23C68.432,20.039,68.987,19.564,69.486,19.591"/>
	<path fill="#7A6946" d="M2.993,37.954c-0.284,0.131-0.596,0.082-0.512-0.022c-0.528,0.39-0.619,0.199-0.563,0.561
		c-0.313,0.305-0.813,0.232-0.434-0.065l-1.013,0.621l0.675-0.199C1.085,39.19,0.067,39.17,0,39.571l1.168-0.485l-0.021,0.114
		c0.226-0.202,0.769-0.357,0.968-0.386c-0.011,0.056,0.037,0.122-0.168,0.209c1.441-0.506,0.189-0.627,1.354-1.15
		C3.227,37.907,3.132,37.936,2.993,37.954"/>
	<path fill="#7A6946" d="M4.483,38.206l0.374-0.521l0.885-0.192c-0.034-0.125,0.554-0.427,0.094-0.396
		c-0.076,0.045-0.227,0.135-0.362,0.167c0-0.294,1.094-0.5,0.748-0.684c-0.657,0.287-0.782,0.267-1.12,0.616
		c-0.63,0.182-1.102,0.278-1.427,0.283c-0.168,0.104-0.133,0.272-0.352,0.386c0.05-0.022,0.096-0.042,0.154-0.065l0.176,0.382
		c0.16-0.149,0.357-0.176,0.569-0.256l-0.813,0.802c0.458,0.253,1.341-0.299,1.788-0.274C4.594,38.284,5.521,38.156,4.483,38.206"/>
	<path fill="#7A6946" d="M3.324,37.864l-0.023,0.009L3.324,37.864z"/>
	<path fill="#7A6946" d="M82.074,26.781c0.228,0.003,0.3-0.092,0.335-0.141l-2.576-0.098c0.076,0.112,0.811,0.276,0.313,0.322
		c0.216,0.13,0.896,0.053,0.999-0.09l-0.194,0.159c0.603-0.189,0.988,0.248,0.595,0.357h0.052l1.683-0.746
		C82.679,26.468,82.8,26.803,82.074,26.781"/>
	<path fill="#7A6946" d="M133.725,36.844c-0.323-0.088-0.377-0.066-0.358-0.015C133.489,36.845,133.608,36.854,133.725,36.844"/>
	<path fill="#7A6946" d="M83.676,26.37l0.53-0.231C83.994,26.197,83.808,26.281,83.676,26.37"/>
	<path fill="#7A6946" d="M79.938,30.125c-0.001,0.014-0.007,0.026,0.005,0.045l0.234-0.123l-0.005,0
		C80.087,30.073,80.01,30.099,79.938,30.125"/>
	<path fill="#7A6946" d="M95.463,26.215l0.172-0.003C95.573,26.208,95.517,26.21,95.463,26.215"/>
	<path fill="#7A6946" d="M73.016,31.412l1.131-0.228c-0.153,0.114,0.392,0.09,0.151,0.222c0.086-0.018,0.489-0.055,0.381-0.118
		l-0.23,0.003c0.603-0.329,0.245-0.469,1.24-0.706c-0.608-0.218-0.882-0.037-1.21,0.111c-0.112,0.022-0.204,0.031-0.298,0.042
		l-0.947,0.46L73.016,31.412z"/>
	<path fill="#7A6946" d="M118.14,33.445l-0.021,0.022C118.133,33.461,118.139,33.453,118.14,33.445"/>
	<path fill="#7A6946" d="M118.041,33.559l0.078-0.092C118.045,33.503,117.809,33.491,118.041,33.559"/>
	<path fill="#7A6946" d="M83.474,26.581c0.02-0.062,0.09-0.137,0.202-0.211l-0.396,0.174C83.333,26.55,83.405,26.566,83.474,26.581"
		/>
	<path fill="#7A6946" d="M82.562,27.284l-0.965,0.006l-0.364,0.162C81.604,27.4,82.037,27.374,82.562,27.284"/>
	<path fill="#7A6946" d="M93.952,25.882c2.012,0.119-0.528,0.358,0.384,0.533c0.561,0.001,0.775-0.171,1.127-0.2
		c-1.604,0.022,0.277-0.608-1.339-0.646c0.261-0.326,1.196-0.275,1.731-0.132c0.585,0.387-0.564,0.193-0.734,0.506
		c0.648,0.004,0.541-0.066,0.834-0.227c1.003,0.17,2.14-0.207,2.693,0.313c0.354-0.001,0.524-0.042,0.658-0.099
		c0.13-0.06,0.198-0.138,0.424-0.207c0.027-0.086-0.024-0.147-0.121-0.194c-0.093-0.048-0.199-0.076-0.356-0.112
		c-0.295-0.068-0.636-0.13-0.764-0.284c0.053,0.036,0.156,0.106,0.118,0.152l-0.627-0.137c0.592,0.183-0.122,0.344-0.447,0.341
		c-0.233-0.016-0.701-0.043-0.626-0.136l0.36-0.042c-0.443-0.157-1.033,0.162-1.495-0.074c-0.017-0.081,0.168-0.102,0.201-0.149
		c-0.563,0.193-1.085,0.132-1.898,0.236l0.497-0.313c-0.677,0.334-2.113,0.105-3.102-0.175c0.106,0.067,0.303,0.125,0.179,0.183
		c-0.598,0.041-1.024-0.234-0.736-0.399c-0.598,0.248-2.179-0.401-2.992-0.069c-1.247,0.521-2.484,1.05-3.715,1.586
		c0.135-0.038,0.281-0.067,0.431-0.075c0.312,0.326,0.487,0.298-0.102,0.56c0.57-0.134,0.371-0.394,1.216-0.36
		c-0.342,0.137-0.444,0.487,0.359,0.57c2.034-0.191,3.437-0.981,5.368-1.289c0.05,0.242,1.541,0.29,2.257,0.407
		c-0.299,0.233-0.839,0.261-1.398,0.269c0.347,0.044,0.945,0.098,1.388,0.147L93.952,25.882z"/>
	<path fill="#7A6946" d="M89.19,26.326c0.047,0.025,0.1,0.04,0.153,0.056C89.315,26.359,89.27,26.341,89.19,26.326"/>
	<path fill="#7A6946" d="M92.168,26.2c-0.008,0.008-0.006,0.015-0.011,0.025l0.18-0.004L92.168,26.2z"/>
	<path fill="#7A6946" d="M83.917,27.144c-0.123,0.061-0.211,0.077-0.337,0.139c0.076-0.019,0.17-0.033,0.259-0.05
		C83.927,27.205,83.968,27.174,83.917,27.144"/>
	<path fill="#7A6946" d="M83.537,26.704l0.067-0.095c-0.049-0.013-0.086-0.018-0.131-0.026
		C83.457,26.633,83.47,26.678,83.537,26.704"/>
	<path fill="#7A6946" d="M101.337,28.73l0.195-0.035C101.417,28.691,101.367,28.706,101.337,28.73"/>
	<path fill="#7A6946" d="M96.147,26.482c-0.698-0.04-0.119,0.347-1.103,0.26l0.285,0.048c-0.72,0.087-1.953-0.087-2.794-0.14
		c0.107-0.134-0.493-0.213-0.379-0.425c-0.577,0.008-1.15,0.014-1.465,0.22c-0.35-0.1-0.904,0.061-1.349-0.064
		c0.179,0.147-0.679,0.405,0.434,0.318c-0.091,0.012-0.037,0.046-0.126,0.059c0.694,0.235,1.001-0.059,1.613-0.018
		c0.353,0.158-0.614,0.168-0.274,0.246c0.77-0.067,2.372,0.343,2.367-0.153c0.556,0.011,0.623,0.127,0.779,0.23
		c0.927-0.454,3.228,0.52,3.288-0.15c-0.322-0.004-0.843-0.068-1.325,0.032L96.147,26.482z"/>
	<path fill="#7A6946" d="M85.085,27.17c0.042,0.005,0.099,0.006,0.134,0.014C85.179,27.177,85.13,27.172,85.085,27.17"/>
	<path fill="#7A6946" d="M76.375,24.865l0.306-0.433c1.673-0.059,2.272,0.086,3.73,0.123c0.109,0.065-0.071,0.097-0.161,0.112
		c1.028-0.012,2.556,0.148,3.313-0.017c0.325,0.019,1.174,0.203,0.842,0.316c0.162-0.031,0.345-0.06,0.525-0.036
		c0.04,0.161-0.41,0.024-0.428,0.153c0.144,0.018,0.199,0.052,0.234,0.003c-0.25,0.124,0.221,0.549-0.91,0.483
		c-0.418-0.394,0.787-0.004,0.551-0.425c-0.375-0.022-0.34,0.138-0.375,0.187c-0.479-0.034-0.459-0.135-0.43-0.227
		c-0.19,0.117-0.784-0.087-1.048,0.094c-0.931-0.01,0.066-0.305-0.542-0.327l-0.37,0.398l-1.008-0.119
		c-1.47,0.089,0.178,0.721-1.501,0.894c0.228-0.208-0.429-0.595-1.204-0.705c0.465,0,1.337-0.243,1.935-0.096
		c-0.836-0.356,1.169,0.004,0.744-0.382c-0.428,0.159-1.126,0.156-1.669,0.043l0.18-0.032c-0.578-0.065-1.032,0.354-1.826,0.165
		c-0.397,0.002-0.321-0.112-0.248-0.208C76.678,24.883,76.374,24.956,76.375,24.865 M77.245,24.802l0.531,0.057
		C77.652,24.787,77.453,24.783,77.245,24.802"/>
	<path fill="#7A6946" d="M11.361,36.038l-0.162,0.01C11.238,36.057,11.298,36.049,11.361,36.038"/>
	<path fill="#7A6946" d="M57.105,29.904l-0.304-0.002C56.919,29.911,57.018,29.909,57.105,29.904"/>
	<path fill="#7A6946" d="M50.407,31.602l-0.433,0.123C50.148,31.708,50.28,31.661,50.407,31.602"/>
	<path fill="#7A6946" d="M14.83,35.166l0.015-0.001c0.021-0.012,0.038-0.025,0.061-0.038L14.83,35.166z"/>
	<path fill="#7A6946" d="M36.804,31.834c-0.07-0.027-0.15-0.049-0.255-0.063C36.565,31.811,36.661,31.83,36.804,31.834"/>
	<polygon fill="#7A6946" points="50.487,31.578 50.459,31.572 50.407,31.602 	"/>
	<path fill="#7A6946" d="M60.134,31.014c0.065-0.014,0.124-0.026,0.192-0.045C60.235,30.979,60.181,30.995,60.134,31.014"/>
	<path fill="#7A6946" d="M59.673,29.854c0.068-0.013,0.135-0.027,0.187-0.046L59.673,29.854z"/>
	<path fill="#7A6946" d="M70.146,30.545l0.409-0.056C70.355,30.495,70.234,30.517,70.146,30.545"/>
	<path fill="#7A6946" d="M60.76,30.097c0.022-0.021,0.046-0.04,0.062-0.059C60.765,30.052,60.739,30.078,60.76,30.097"/>
	<polygon fill="#7A6946" points="8.516,35.563 8.538,35.554 8.533,35.505 	"/>
	<path fill="#7A6946" d="M7.76,36.423l-0.328,0.136C7.559,36.522,7.676,36.473,7.76,36.423"/>
	<path fill="#7A6946" d="M30.856,31.943c-0.116-0.043-0.378-0.078-0.271-0.162C30.393,31.896,30.442,32.101,30.856,31.943"/>
	<path fill="#7A6946" d="M9.663,32.528c-0.047,0.072-0.114,0.135-0.182,0.197C9.611,32.626,9.727,32.542,9.663,32.528"/>
	<path fill="#7A6946" d="M9.481,32.725c-0.065,0.05-0.133,0.102-0.189,0.152C9.36,32.828,9.425,32.778,9.481,32.725"/>
	<path fill="#7A6946" d="M33.079,28.164c0.03,0.024,0.076,0.042,0.134,0.042C33.188,28.152,33.142,28.146,33.079,28.164"/>
	<path fill="#7A6946" d="M7.136,36.582c-0.032,0.111-1.429,0.781-0.178,0.438c0.053,0.305-0.745,0.385-1.045,0.564
		c0.261-0.009-0.053,0.226,0.057,0.306c0.15-0.088,0.313-0.235,0.588-0.3c0.171,0.094-0.205,0.313-0.54,0.368
		c0.444,0.026-0.411,0.393,0.182,0.33c1.14-0.486,1.943-0.848,2.643-1.526c-0.66,0.272-1.389,0.594-1.984,0.653l0.147-0.327
		c0.706,0.025,1.039-0.26,1.669-0.422l-1.441,0.292c-0.724-0.006-0.306-0.192,0.196-0.398C7.303,36.595,7.183,36.616,7.136,36.582"
		/>
	<path fill="#7A6946" d="M7.344,34.069H7.318c-0.019,0.015-0.043,0.029-0.054,0.044L7.344,34.069z"/>
	<path fill="#7A6946" d="M70.108,25.171l0.13-0.1C70.13,25.116,70.097,25.146,70.108,25.171"/>
	<path fill="#7A6946" d="M8.596,35.043L8.596,35.043C8.603,35.038,8.606,35.038,8.596,35.043"/>
	<path fill="#7A6946" d="M66.899,25.147c0.004-0.007,0.008-0.015,0.017-0.023C66.903,25.132,66.903,25.14,66.899,25.147"/>
	<path fill="#7A6946" d="M66.084,30.878c0.005,0.013,0.008,0.025,0.021,0.036C66.172,30.898,66.139,30.886,66.084,30.878"/>
	<path fill="#7A6946" d="M66.897,25.172c0-0.008-0.003-0.016,0.002-0.025C66.897,25.156,66.891,25.164,66.897,25.172"/>
	<path fill="#7A6946" d="M51.351,26.612c0,0,0.052,0.044,0.131,0.083C51.513,26.669,51.48,26.641,51.351,26.612"/>
	<path fill="#7A6946" d="M54.439,26.847c0.02,0.009,0.031,0.017,0.057,0.027L54.439,26.847z"/>
	<path fill="#7A6946" d="M31.748,33.024c0.147-0.017,0.258-0.039,0.35-0.063C31.988,32.969,31.872,32.986,31.748,33.024"/>
	<path fill="#7A6946" d="M66.916,25.124c0.033-0.028,0.078-0.057,0.153-0.093C66.985,25.068,66.942,25.098,66.916,25.124"/>
	<path fill="#7A6946" d="M46.787,28.256l0.091-0.036c-0.021-0.003-0.038-0.004-0.058-0.009L46.787,28.256z"/>
	<path fill="#7A6946" d="M45.179,28.185c0.052-0.035,0.074-0.067,0.102-0.098c-0.557,0.155-1.611,0.125-1.708,0.417
		c0.191-0.024,1.205,0.057,1.05,0.237c0.389-0.104,0.989,0.047,1.197-0.016c-0.66-0.101-0.089-0.233,0.341-0.36
		c0.405,0.051-0.057,0.232,0.292,0.257l0.917-0.099l-0.806,0.022l0.224-0.289l-0.081,0.031
		C45.356,28.519,46.558,27.899,45.179,28.185"/>
	<path fill="#7A6946" d="M45.28,28.087c0.085-0.024,0.158-0.051,0.213-0.084C45.365,28.018,45.317,28.049,45.28,28.087"/>
	<path fill="#7A6946" d="M39.677,28.149c-0.068,0.016-0.142,0.037-0.234,0.067C39.485,28.202,39.588,28.178,39.677,28.149"/>
	<path fill="#7A6946" d="M80.552,27.379c-0.021-0.081-0.81-0.276-0.804-0.066l0.709,0.092L80.552,27.379z"/>
	<path fill="#7A6946" d="M24.83,31.427c0.088-0.01,0.176-0.023,0.262-0.042c0.016-0.014,0.032-0.028,0.045-0.041
		C25.077,31.324,24.912,31.391,24.83,31.427"/>
	<path fill="#7A6946" d="M44.387,28.859c0.142-0.044,0.204-0.082,0.235-0.118C44.529,28.765,44.445,28.799,44.387,28.859"/>
	<path fill="#7A6946" d="M24.686,30.947c-0.123-0.039-0.304-0.1-0.343-0.173c-0.228,0.039-0.365,0.176-0.589,0.256
		C24.011,30.953,24.316,30.917,24.686,30.947"/>
	<path fill="#7A6946" d="M23.737,31.037l0.018-0.007C23.748,31.03,23.743,31.034,23.737,31.037"/>
	<path fill="#7A6946" d="M81.021,27.488c0.068-0.013,0.14-0.025,0.212-0.035l-0.111,0.052l0.543,0.085
		c0.066-0.01,0.139-0.02,0.227-0.022c-0.036,0.006-0.063,0.027-0.082,0.048l0.173,0.032c0.446-0.198,1.537-0.303,1.857-0.414
		c0.42-0.072,0.929-0.099,1.246-0.063c-0.295-0.021-0.688,0.002-0.578,0.127c0.592,0.157,0.858,0.529,1.909,0.282l-0.605-0.03
		l1.391-0.384c0.462,0.221-0.695,0.19-0.894,0.346c1.072-0.166,1.908,0.5,2.427,0.132c0.053,0.243,0.138,0.646,0.831,0.67
		c-0.479-0.305,0.43-0.145,0.041-0.464c0.251-0.119,0.767,0.141,0.819-0.034l-0.072,0.093c1.151,0.462,1.586-0.096,2.112-0.25
		c1.426,0.017,2.063,0.227,3.221,0.29c0.029,0.164,0.299,0.629,0.764,0.656c0.237-0.195,1.29-0.193,1.427-0.457
		c-0.815-0.197-0.702,0.163-1.204,0.181c-0.382-0.327-0.007-0.289-0.553-0.514c0.441,0.152,2.076,0.046,2.538,0.369l-0.179,0.021
		c0.385,0.123,0.594,0.359,0.879,0.522c0.289,0.166,0.65,0.265,1.33,0.117l0.648-0.113c-0.033,0.024-0.04,0.057-0.058,0.08
		c1.031,0.122,0.715,0.409,1.883,0.269c-0.092,0.011-0.038,0.047-0.13,0.056c0.633,0.217,1.321-0.027,1.822-0.04
		c0.273,0.262-0.097,0.218-0.3,0.365c1.128,0.207,2.409-0.038,3.163-0.22l0.721,0.235c-0.453,0.032-1.021,0.204-0.909,0.358
		c0.412,0.009,0.349-0.111,0.914,0.013c-0.12,0.132-0.381,0.235-0.675,0.382c1.138,0.407,0.345-0.483,1.097,0.083
		c0.368,0.058,0.619-0.122,0.688-0.291l0.629,0.337c0.113-0.213,0.945-0.086,1.492-0.018c0.086-0.084-0.39-0.318-0.612-0.267
		c0.073-0.169,0.67-0.148,1.04-0.074c0.02,0.247,0.629,0.346,1.165,0.45c0.534,0.103,0.994,0.21,0.71,0.436
		c1.686,0.199,3.997,0.757,5.126,0.879c0.316,0.226,1.029,0.443,0.531,0.531c1.297,0.385,2.125,0.13,3.364,0.67
		c0.084,0.091-0.582-0.185-0.59-0.019c0.904,0.091,1.452,0.687,2.783,1.012c-0.22-0.067-0.317,0.004-0.365,0.04
		c0.005-0.083,0.584,0.027,0.946,0.074c0.169,0.104-0.271-0.034-0.188,0.06c2.392,1.089,4.508,1.196,6.937,2.175
		c-0.694-0.28-1.083-0.089-1.139,0.027l0.675,0.272c0.326-0.042,0.835,0.16,1.309,0.222c0.028,0.075,0.21,0.217-0.031,0.201
		c1.205,0.831,2.323,0.313,3.89,1.142l-2.241-0.231l0.398,0.404l-0.987-0.089c0.446,0.372,1.063,0.186,1.026,0.432
		c-0.137,0.017-0.393-0.11-0.453,0.004c0.458,0.29,0.571,0.142,0.963,0.254c-1.185,0.038-3.111-0.751-4.201-1.05
		c-0.181-0.03,0.188-0.053,0.236-0.087c-0.432-0.154-0.628-0.394-1.197-0.525c-0.415,0.061,0.194,0.238,0.449,0.362
		c-0.108,0.151-0.235,0.089-0.54-0.001c0.03-0.247-1.582-0.702-1.852-1.114c-1.609-0.522,0.018,0.666-1.485-0.003l-0.357-0.424
		c-0.977-0.131-2.205-0.369-3.204-0.77l0.218,0.064c0.184-0.061-0.025-0.209-0.109-0.302c-0.732-0.373-1.541-0.29-1.919-0.699
		c-0.982-0.013-2.526-0.263-3.582-0.404c-0.168-0.426,1.416,0.09,1.907,0.01l-0.925-0.276c0.573,0.165,0.841,0.103,1.25,0.014
		c-0.791-0.312-1.158-0.092-1.956-0.227c0.089-0.076,0.005-0.164-0.35-0.266l-0.173,0.2c-0.001-0.02-0.034-0.049-0.141-0.094
		c-0.471-0.081-0.944-0.157-1.415-0.23c0.263,0.176,0.218,0.379,0.572,0.476c-0.088-0.168,0.221-0.114,0.574-0.012
		c-0.356,0.063,0.307,0.221,0.259,0.343c-0.703-0.206-1.584-0.404-2.067-0.458l-0.092-0.25c-0.664-0.225-1.415-0.274-1.86-0.439
		l0.173-0.082c-0.804-0.251-1.643-0.28-2.33-0.63c-0.791,0.104-1.756,0.149-2.401,0.314c-0.363,0.223-2.11-0.678-3.01-0.379
		c-0.051-0.038,0.604-0.141,0.906-0.207c-0.553-0.118-1.043,0.179-1.181-0.138c1.243,0.253-0.035-0.245,0.543-0.26
		c-0.591-0.068-1.222-0.086-1.523-0.011c0.956,0.106-0.39,0.371,0.591,0.352c-0.778,0.163-1.809,0.154-2.697-0.029
		c0.021-0.128-0.082-0.198-0.414-0.283l-0.289,0.161c-0.42-0.074,0.839-0.144-0.005-0.29c-0.904,0.235-2.625-0.417-3.068,0.138
		c-0.649-0.292,1.301-0.125,0.315-0.497c0.608-0.163,1.397,0.153,1.619-0.123c-0.585,0.032-0.187-0.267-0.558-0.303l-0.662,0.125
		l0.143,0.024c-0.276,0.045-0.59,0.063-0.928,0.061c-0.349,0-0.718-0.03-1.088-0.064c-0.73-0.067-1.497-0.163-2.185-0.203
		c-1.192,0.19-2.029,0.547-3.42,0.402c0.428-0.141-1.141-0.26-0.236-0.508c-0.632-0.205-1.285-0.071-1.309,0.057
		c0.564,0.086,0.197,0.057,0.668,0.155c-0.334,0.131-1.077,0.069-1.374-0.056c0.141,0.022,0.089-0.012,0.124-0.058
		c-0.67-0.154-0.338,0.131-0.832,0.162c-0.139-0.229-1.076-0.133-1.516-0.274l-0.67,0.27c0.369-0.183-0.618-0.113-0.707-0.307
		c-0.475,0.117-0.881,0.347-1.587,0.253c0.3-0.091-0.636-0.19-0.636-0.398c-1.206-0.261-2.041,0.466-3.176,0.12
		c0.036-0.047,0.276-0.174-0.058-0.24c-0.268,0.046-0.73,0.003-1.016,0.015l0.009-0.005l-0.014,0.005
		c-0.141,0.006-0.229,0.028-0.234,0.079c-0.493,0.186-0.751,0.384-1.711,0.525c0.063,0.24,0.868,0.175,1.221,0.111l0.311-0.224
		c0.271,0.369,0.861-0.029,1.076,0.101c-0.589,0.396-2.23,0.231-3.227,0.462c0.592,0.35,1.894,0.445,3.035,0.452l-0.495-0.163
		l0.596,0.019l-0.566-0.276c0.565,0.066,1.055,0.021,1.565,0.059c-0.598-0.021-0.816-0.358-0.479-0.293
		c0.655,0.262,0.702-0.122,1.213-0.085c-0.285-0.035-0.652-0.055-0.407-0.181c0.991,0.333,1.272,0.159,2.171,0.511
		c-0.092-0.403,1.144,0.021,1.3-0.295l-0.422-0.057l0.917-0.188c0.809,0.372-0.758,0.285,0.492,0.588
		c1.161,0.111,1.159-0.307,2.079-0.277c-0.319,0.214-1.06,0.368-1.797,0.317l0.438,0.141c-0.245,0.121-1.265,0.03-1.773-0.012
		c0.859-0.222-0.39-0.105-0.761-0.336c-0.085,0.223,0.46,0.218-0.19,0.365c0.599,0.028,0.688,0.014,1.442,0.142
		c-1.639-0.195-1.524,0.707-2.947,0.444c0.668-0.07-0.212-0.34-0.286-0.453c-0.313,0.013-0.948,0.038-1.21,0.084l0.22,0.338
		c-0.843,0.107-1.103-0.602-2.081-0.3c-0.133,0.192,0.846,0.099,0.67,0.13c-1.329,0.156-1.781-0.389-2.949-0.673
		c-0.07,0.097-0.063,0.306-0.48,0.467c0.137-0.193-0.164-0.303,0.303-0.434c-0.391-0.095-0.861,0.038-1.209,0.105
		c0.815,0.137-0.342,0.274-0.495,0.389c-0.421-0.043,0.134-0.193,0.396-0.244c-0.338-0.061-0.736-0.362-0.936-0.07
		c-0.01-0.208,0.965-0.526,1.598-0.562l-0.424-0.044c0.295-0.099,0.35-0.068,0.773-0.023c-0.41-0.172-0.364-0.349-0.263-0.494
		c0.054,0.031-0.031,0.048,0.018,0.079c0.34,0.062,0.603,0.014,0.528-0.099c0.314-0.271-0.468-0.189-0.694-0.334l-0.524,0.042
		l-1.792,0.858c-0.756,0.089-1.091-0.13-1.656-0.274l-0.159,0.238c-0.656-0.033-1.277-0.116-0.852-0.415
		c0.022,0.08,0.109,0.062,0.251,0.075c0.02-0.033,0.053-0.056,0.096-0.074c0.013-0.014,0.021-0.028,0.033-0.042
		c-0.707,0.069-1.146,0.117-1.187,0.125c1.199-0.337,0.063-0.435,0.269-0.858l-1.214,0.13c0.734,0.14,0.013,0.208-0.247,0.264
		c-0.071-0.24-0.976-0.001-1.399-0.034l0.032-0.049c-0.394-0.083-1.084-0.059-1.573,0.009c0.023,0.08-0.604,0.475-0.902,0.712
		c0.839,0.084,0.343,0.184,0.412,0.331c-0.088-0.013-0.243-0.015-0.262,0.016c-0.119,0.069,0.164,0.09,0.187,0.169
		c0.89-0.119,1.806-0.151,2.169-0.484c-0.274-0.151-0.466,0.145-0.772,0.045c0.441-0.226,1.013-0.183,1.753-0.173l0.242,0.2
		l0.744-0.104c-0.31,0.104-0.125,0.313-0.906,0.351c0.098,0.189,0.774-0.039,1.253,0.028l0.247-0.264
		c-0.096,0.146,0.928,0.184,0.198,0.379l-1.185,0.209l0.327,0.184l-0.998,0.046l0.235-0.137c-1.604,0.181-0.472-0.532-2.089-0.216
		c-0.504,0.324-1.047,0.361-2.037,0.292c0.716-0.079,0.071-0.228,0.34-0.417c-0.733-0.128-0.978,0.141-1.355,0.271
		c-0.188-0.168-0.322-0.306,0.33-0.289c0.078-0.357-0.858,0.072-0.924-0.292c-2.167,0.049-1.708,1.211-4.244,0.82l0.09-0.149
		c-1.596,0.231-2.528,0.09-4.006,0.269l-1.188-0.323c0.259-0.069,0.948-0.382,0.611-0.548c0.588,0.354,1.187,0.196,1.808,0.375
		c0.06-0.101-0.192-0.163-0.306-0.219c0.37-0.012,0.563,0.152,1.051,0.068c-0.027-0.078-0.565-0.152-0.163-0.213l0.673,0.211
		c0.887-0.142,0.419-0.575,1.471-0.5c-0.188,0.214-0.575,0.529-0.979,0.591c0.479,0.03-0.632,0.147-0.192,0.258
		c0.679-0.333,1.018-0.097,1.927-0.317c-0.105,0.046-0.133,0.107-0.356,0.133l1.33,0.096c-0.334-0.174,1.092-0.223,0.962-0.489
		c-1.419-0.081-0.997,0.071-2.617-0.038c0.456-0.074,1.036-0.363,1.308-0.621c0.014,0.009,0.038,0.018,0.087,0.021
		c0.24-0.271-0.014-0.337-0.021-0.802c-0.731,0.349-1.234,0.09-2.101,0.307c-0.156,0.26,0.516,0.309,0.948,0.231l-0.763,0.191
		l0.146-0.121l-1.951-0.021c0.368-0.027,0.487-0.179,0.677-0.296c-0.252-0.003-0.505-0.06-0.773-0.124
		c0.065,0.24,0.037,0.414-0.208,0.418c-1.257-0.01-1.964-0.195-2.441-0.451l-0.147,0.024c0.225,0.239-0.868,0.489-1.24,0.766
		c0.005-0.259-0.654-0.122-1.023-0.233c-0.175,0.306,0.106,0.699,0.56,0.917c0.828-0.314,0.457-0.297,0.836-0.701l1.347-0.32
		l-0.293,0.249c0.684,0.072,1.321-0.266,1.284,0.043c-0.348,0.219-0.945,0.122-1.289,0.343l0.451,0.092
		c-0.774,0.337-0.419-0.272-1.365-0.015c0.366,0.243-0.086,0.022-0.485,0.219c0.339,0.163,1.68-0.158,1.415,0.298
		c-0.484,0.217-1.7-0.437-2.331,0.041l0.028-0.052c-0.972-0.004-1.297,0.27-1.647,0.451c-0.421-0.118-0.975,0.12-1.419,0.166
		l0.002-0.13l-0.624,0.097c0.279-0.255,0.735-0.045,1.273-0.114l-0.084-0.234c0.643,0.244,1.029-0.212,1.501-0.448
		c-0.692,0.247-1.994,0.064-2.125,0.545l-0.455-0.213l-0.201,0.102c-0.338-0.157-0.029-0.467,0.597-0.562
		c0.116,0.052,0.171,0.079,0.143,0.131c0.283-0.127,0.54-0.33,1.252-0.318l-0.37,0.15c0.885-0.039,1.681-0.177,1.969-0.428
		c-1.282-0.029-2.538,0.028-3.733,0.123c-0.313,0.564-0.706,0.897-0.843,1.412c-0.791,0.15-1.867,0.305-2.575,0.181l0.055-0.104
		c-0.344-0.023-0.652,0.031-0.906,0.11c-0.37-0.101,0.22-0.286-0.036-0.336l-1.125,0.27c0.047-0.234,1.008-0.321,1.465-0.376
		c-0.085,0.026-0.256,0.08-0.199,0.104c0.542,0.046,1.498-0.42,1.759-0.109c0.254-0.078-0.505,0.284,0.373,0.232
		c0.598,0.079,0.765-0.231,0.817-0.333c-0.001-0.131-0.938-0.105-0.626-0.286c-0.457,0.052-0.626,0.233-1.221,0.155
		c0.45-0.052,1.046-0.361,1.303-0.18c0.879-0.308,0.703-0.9,0.276-0.903c0.113,0.181-1.623,0.36-0.422,0.515
		c-0.511,0.283-1.477,0.364-2.152,0.575l0.027-0.052l-0.852,0.137c0.114-0.079,0.368-0.159,0.364-0.287l-1.153,0.451
		c0.645-0.294-0.43-0.123-0.745-0.195c-0.106,0.209-0.555,0.397-0.098,0.467c0.515,0.094,0.279-0.133,0.732-0.191l-0.613,0.37
		l-0.057-0.024l-0.359,0.291c-0.875,0.067,0.317-0.628-0.775-0.269l0.185,0.331c-1.302,0.077-3.011-0.126-3.905,0.141
		c0.227-0.226,0.298-0.554-0.073-0.7c0.403,0.013,1.196-0.09,1.759-0.185c0.117,0.049-0.659,0.485-1.283,0.482
		c0.369,0.529,1.509-0.516,1.65,0.05c1.589,0.033,1.106-0.676,2.478-0.473c-0.008-0.258,0.366-0.162,0.412-0.394
		c-0.438-0.381-1.784,0.189-2.667,0.136c0.084-0.028,0.249-0.084,0.277-0.136c-0.628-0.009-0.878,0.076-1.3,0.219l0.06,0.024
		c-0.726,0.333-0.492-0.138-0.95-0.201c-0.168,0.057-0.797,0.057-0.671,0.233l-0.841-0.146l0.08,0.281
		c-0.452,0.072-0.577-0.104-0.965,0.122l0.017,0.257l1.137-0.051c-0.559,0.153-0.128,0.263-0.745,0.394
		c0.66-0.366-0.515-0.079-0.616-0.307l-0.438,0.203l0.106-0.084c-0.379-0.083-0.416,0.15-0.841,0.174
		c0.518,0.075,0.866,0.211,1.475-0.049c-0.442,0.201-1.332,0.479-1.553,0.519c-0.468,0.17-0.832,0.024-1.287,0.058
		c0.851-0.221-0.423-0.732,1.345-0.785c-0.024,0.053-0.168,0.062-0.226,0.038c0.278,0.294,1.04-0.159,1.402-0.331
		c-0.124-0.175,0.267-0.273-0.42-0.289c0.237,0.091-0.507,0.49-1.166,0.423l0.054-0.417l-0.938,0.08l0.083-0.031
		c-0.39-0.21-0.983,0.189-1.647,0.132c-0.44,0.208-2.227,0.368-1.395,0.669c-0.616-0.163-1.063,0.236-1.675,0.392l0.805,0.038
		c-0.866,0.434-0.637,0.207-1.285,0.781c-0.094-0.096-0.273-0.159-0.146-0.299c-1.232,0.182-3.005,0.389-3.654,0.852
		c-0.862,0.146-1.099-0.295-2.265,0.131c-0.241,0.107,0.28,0.329-0.542,0.379c-0.06-0.018,0.701-0.452-0.18-0.237
		c-0.561,0.435-1.522,0.146-2.279,0.592c-0.458-0.012-1.197,0.202-1.102-0.073c0.698-0.106,1.655-0.369,1.778-0.517
		c-0.062,0.165,0.521,0.035,0.042,0.256c1.081-0.042,0.638-0.295,1.6-0.367c0.042-0.111-0.54-0.166-0.722-0.038
		c-0.08-0.329,1.809-0.542,0.888-0.764c-1.011,0.179-1.144,0.928-2.09,0.771c0.297-0.276,0.878-0.225,1.242-0.662l-0.745,0.02
		l-0.461,0.35l0.02-0.055c-1.331-0.021-1.081,0.596-2.154,1.019c0.704,0.076-0.003,0.601,0.516,0.627
		c-0.731,0.215-1.286,0.304-1.377-0.021c1.32-0.599-0.015-0.366,1.192-0.996c-0.243-0.067,0.188-0.552-0.595-0.406
		c-0.81,0.44,0.329,0.211-0.509,0.524c-0.058-0.017-0.12-0.033-0.102-0.088c-0.353,0.267-0.482,0.05-0.911,0.358l0.097-0.094
		c-0.648-0.051-0.587,0.385-1.154,0.3c0.269,0.189-0.288,0.285-0.559,0.518c0.54-0.042,0.914,0.23,1.923-0.041
		c0.071-0.222-0.033-0.311,0.36-0.505l-0.654,0.186c0.134-0.067,0.229-0.143,0.35-0.214l0.664-0.055
		c-0.771,0.332-0.348,0.446-0.634,0.729c-0.757,0.099-0.59,0.203-1.068,0.258c-0.033-0.294-1.549-0.115-2.445-0.061
		c0.133-0.024,0.301-0.078,0.395-0.095c0.561-0.343-0.492-0.118-0.538-0.188l-0.404,0.264c0.078-0.043,0.175-0.14-0.028-0.127
		c-0.588,0.22-0.467,0.487-1.05,0.71c-0.094-0.139,0.342-0.517-0.059-0.49c-0.169-0.095-0.696-0.333-1.452,0.042
		c-0.038,0.076-0.234,0.17-0.465,0.27c0.031-0.019,0.07-0.038,0.082-0.054l-0.585-0.003c0.364-0.398,0.953-0.157,1.324-0.554
		l-0.042-0.259c0.356-0.105,0.806-0.354,0.99-0.546c-0.56,0.115-0.653,0.214-1.244,0.445c-0.137-0.131,0.253-0.376,0.311-0.409
		l-0.047,0.168c0.792-0.008,1.011-0.557,1.937-0.763c0.138-0.029,0.061,0.013,0.046,0.069c0.664-0.445,1.484-0.309,2.114-0.814
		l-0.197,0.193l2.253-1.2l-0.019-0.099c-0.122-0.032,0.242-0.117,0.446-0.124l-0.001,0.002c0.454-0.235,0.894-0.454,1.257-0.624
		c-0.138-0.032-0.308-0.047-0.491-0.019c-0.124,0.149-1.04,0.267-0.849,0.499c-0.453-0.06-1.054,0.328-1.383,0.305
		c0.595,0.031-0.314,0.339-0.369,0.508c-0.231-0.118-0.809,0.219-0.798-0.019c-0.123-0.029,0.31,0.077,0.505-0.114
		c0.516-0.353-1.1,0.089-0.442-0.29c-0.867,0.388-2.081,0.644-2.951,1.11l0.549-0.057c-0.425,0.082-1.386,0.412-1.493,0.329
		c0.299-0.116,0.659-0.215,1.04-0.371c-0.059-0.253-0.946,0.271-1.038,0.132L7.658,34.61l0.502-0.135
		c-0.266,0.242-1.364,0.374-2.142,0.585c0.325-0.474,1.155-0.374,1.924-0.749c0.549-0.304-0.472-0.216,0.062-0.464
		c-0.171-0.035-0.534,0.084-0.686,0.224l-0.241,0.005c0.398-0.459,1.544-0.725,2.215-1.2c-0.055,0.053-0.101,0.103-0.112,0.145
		c0.615-0.046,1.202-0.213,1.745-0.448c-0.328-0.016-0.427,0.083-0.588,0.166c-0.043-0.071,0.481-0.25,0.658-0.389
		c-0.555,0.053-0.151-0.156-0.502-0.116c0.324-0.168,0.61-0.219,1.04-0.299c0.251,0.06-0.134,0.208-0.045,0.35
		c0.405-0.206,0.707,0.106,1.289-0.23c-0.861,0.15,0.128-0.39,0.392-0.567l-0.145,0.025c0.218-0.247,0.445-0.311,0.675-0.192
		c-0.326,0.16-0.675,0.192-0.525,0.351c0.224-0.065,0.451-0.13,0.695-0.249l-0.201,0.191l1.126-0.315
		c0.137-0.204,0.38-0.505,0.477-0.78c0.311,0.083,0.662-0.13,0.909-0.244l-0.105,0.095c0.54,0.023,1.633-0.342,1.695-0.504
		c0.387,0.047-2.322,1.476,0.186,0.783c0.967-0.21,0.496-0.589,1.013-0.865c0,0-0.021,0.053,0.041,0.071
		c0.432-0.055,0.436-0.238,0.77-0.385c-0.271-0.017-0.642,0.055-0.747,0.148c0.085-0.22,0.891-0.167,1.184-0.383
		c-0.358,0.382,0.849-0.052,0.554,0.167c0.886,0.023,1.744-0.383,2.146-0.685c0.652,0.269,1.002-0.234,1.973-0.226
		c-0.146,0.014-0.396,0.117-0.605,0.112c-0.487,0.332,0.994-0.046,0.217,0.316c0.168-0.068-0.014-0.128-0.188-0.059
		c-0.309,0.081-0.584,0.24-0.483,0.334l0.802,0.075l-0.256,0.104l1.21,0.09c0.022-0.052-0.097-0.094-0.157-0.114
		c1.359-0.103,2.862-0.509,4.045-0.646c0.109-0.712,2.852-0.711,3.745-1.244c-0.228,0.226-0.317,0.587-0.139,0.707
		c-0.208,0.057-0.603,0.387-1.092,0.396c-0.093-0.097-0.705-0.138-0.342-0.315c-1.317,0.263,0.226,0.27-0.129,0.576
		c1.458-0.27,2.267-0.777,3.177-1.052l0.033,0.076l0.685-0.237c-0.581,0.026-0.604-0.361,0.157-0.318L35.48,27.32
		c0.445,0.11,1.301-0.183,1.966-0.231l0.423-0.272c0.668-0.048,0.744,0.364,0.989,0.588c1.041-0.08,1.602-0.479,2.322-0.752
		c0.353,0.147,1.915,0.048,1.112,0.342c0.919-0.242,0.64-1.198,2.303-0.796l-0.403,0.21c1.538-0.169,3.712-0.673,4.438-0.535
		c-0.523,0.664,1.971,0.514,2.283,1.117c-0.085-0.136,0.489-0.216,0.568-0.296c0.131,0.066,0.346,0.124,0.563-0.015
		c-0.608-0.09,0.384-0.664-0.749-0.351c0.553-0.455,1.284-0.828,2.564-0.867l-0.006,0.258l-1.014-0.028
		c0.113,0.185-0.407,0.196-0.615,0.295c1.884,0.047-0.212,0.611,1.702,0.484c0.177-0.176,0.061-0.101,0.555-0.189
		c-0.233,0.018-0.266,0.198,0.11,0.184l0.354-0.222c0.688,0.398-1.094,0.328-0.508,0.604c-0.729,0.235-2,0.409-1.743,0.726
		c1.209,0.057,1.049-0.67,2.317-0.579l0.141,0.134c0.439-0.114,0.5-0.344,0.735-0.49c0.026,0.079,0.142,0.133,0.428,0.144
		c0.735-0.36,1.23-0.442,1.909-0.826c-1.832,0.334-1.587-0.198-3.479,0.124c0.293-0.121,1.63-0.254,1.696-0.612l-0.006,0.258
		c0.614-0.157,1.227-0.312,2.01-0.252l-0.47,0.16c1.027-0.213,1.727,0.337,2.527-0.111c-0.288-0.016-0.52-0.002-0.698,0.042
		c0.529-0.129,1.195-0.119,1.773-0.088l1.187-0.449c-0.008,0.128,0.749,0.123,0.389,0.333c0.862,0.183,1.262-0.205,1.759-0.274
		c0.885,0.264-0.761,0.129-0.844,0.487c1.215,0.103,2.498-0.012,3.181-0.246c-0.247-0.051-0.367-0.095-0.354-0.157
		c0.036,0.081,0.525,0.058,0.798,0.061l0.188-0.168c0.454,0.112,0.391,0.211,0.005,0.338c0.435,0.032,0.951-0.29,1.398-0.046
		c-0.741,0.198-1.685,0.023-2.07,0.15c1.547-0.167,1.556,0.506,3.516,0.306c0.023,0.08-0.308,0.232,0.068,0.239
		c0.875-0.054,0.231-0.343,0.507-0.527c-0.675,0.098-0.987-0.006-1.378-0.22l0.182-0.135c0.026,0.07,0.45,0.077,0.575,0.146
		l0.11-0.276c-0.053,0.306,0.622,0.545,1.155,0.437c-0.535-0.229-0.391-0.215-0.532-0.565c0.755-0.322,0.842,0.334,1.687-0.003
		c-0.065,0.098-0.8,0.16-0.166,0.245c0.522,0.021,0.458-0.218,0.813-0.288c-0.401,0.249-0.304,0.44-0.737,0.735
		c-0.932,0.019-0.377-0.009-1.286,0.092l0.766,0.225c-0.788,0.031-0.576,0.285-0.643,0.381c1.339,0.277,1.019-0.374,1.883-0.293
		c0.419-0.168-0.81-0.05-0.154-0.223c0.808,0.052,0.187-0.163,1.1-0.256l-0.155,0.114c0.274,0.157,0.552-0.023,0.875-0.042
		c0.357-0.069-0.379-0.897,1.08-0.878c-0.073,0.069-0.103,0.114-0.103,0.144l-1.472,2.109c1.465,0.026,3.154,0.132,4.845,0.339
		c0.382,0.433-1.224,0.302-1.127,0.495l-0.769-0.11c0.049-0.177,1.621-0.001,0.933-0.338c-1.369,0.083-1.983-0.139-3.288,0.195
		c0.391,0.428,1.707-0.032,2.54,0.32c-0.353-0.039-0.653-0.001-0.944,0.05c0.787,0.076,1.631,0.162,2.526,0.259l0.205-0.094
		c-0.604-0.07-1.021-0.119-1.075-0.137c0.803,0.064,1.488-0.142,1.557-0.446l-0.142-0.017l0.294-0.084L81.021,27.488z
		 M132.034,36.609c-0.057,0.009-0.108,0.027-0.15,0.057C131.928,36.635,131.911,36.596,132.034,36.609 M65.269,28.267
		c1.071,0.035,2.15,0.114,3.177,0.152c-1.853-0.606-3.17-1.059-0.063-1.054l0.205-0.043c-0.407-0.076-1.108-0.085-1.766-0.038
		c-0.534,0.216-2.242,1.022-2.22,1.094c0.189,0.167,0.46-0.021,0.804,0.028L65.269,28.267z M64.495,27.259
		c-0.608-0.061-0.469,0.073-0.561,0.195l0.637-0.054C64.491,27.371,64.45,27.328,64.495,27.259 M63.973,27.574
		c0.066,0.002,0.125,0.007,0.157,0.023L63.973,27.574z M75.788,27.793l-0.063,0.005l0.435,0.039
		C76.105,27.816,75.994,27.798,75.788,27.793 M74.562,27.468l-0.146,0.219l0.408,0.034C74.779,27.62,74.733,27.531,74.562,27.468
		 M70.602,26.683c-0.252,0.265-1.091,0.271-1.144,0.579c-0.055,0.078,0.121,0.109,0.32,0.135l0.704,0.031
		c0.01-0.045,0.06-0.087,0.144-0.125c-0.246-0.041-0.411-0.118-0.311-0.305c0.633,0.415,0.573-0.289,1.259-0.177
		C71.796,26.605,70.813,26.598,70.602,26.683 M18.25,32.216c-0.024-0.021-0.105-0.075-0.218-0.138l0.437-0.251
		c0.859-0.116,1.629,0.176,2.307-0.348c0.376,0.022,0.609,0.182,0.826,0.309c-0.176,0.023-0.342,0.038-0.482,0.041
		C19.118,32.804,19.881,31.479,18.25,32.216 M28.063,30.931c-0.083,0.033-0.106,0.087-0.106,0.087
		c1.796-0.859,3.345-1.242,4.374-1.362c-0.232-0.194-1.181-0.236-1.635-0.264l0.349-0.308l0.274,0.164l0.641-0.324
		c-0.215-0.144-0.755-0.032-1.142-0.109c-0.023,0.051-1.145,0.516-1.444,0.721l0.96,0.035c-0.265-0.035-1.488,0.209-1.966,0.351
		c0.013,0.128,0.886,0.191,0.946-0.098c0.131,0.171-0.838,0.323-0.191,0.429c-0.692,0.308-1.873,0.328-2.425,0.326l-0.148-0.299
		c-0.61-0.023-0.327,0.443-1.059,0.382c0.846-0.208-0.21-0.318,0.47-0.459c-0.24-0.081-0.066-0.33-0.75-0.189
		c-0.489,0.513-0.771-0.135-1.238,0.329c-0.387-0.064,0.337-0.319-0.383-0.247c-0.77,0.367-0.689,0.516-0.678,0.825
		c0.773-0.057,0.771-0.548,1.408-0.588l-1.131,0.742c0.242,0.031,0.412,0.007,0.548-0.04c-0.241,0.075-0.436,0.191-0.595,0.33
		c-0.088,0.078-0.173,0.146-0.251,0.206c0.696-0.128,1.315-0.231,1.45-0.123l-0.066,0.163c0.271,0.089,0.652-0.086,0.816-0.226
		c0.619-0.125,1.206-0.435,1.377-0.268l-0.212,0.174C27.016,31.121,27.098,31.088,28.063,30.931 M53.466,28.712
		c-0.502-0.519-1.05-0.981-3.249-0.752l0.171-0.048c-1.137-0.274-2.132,0.588-3.51,0.309c0.639-0.254,0.604-0.231,1.293-0.751
		l-0.693,0.204c0.173-0.31-0.518-0.107-1.036-0.082l0.428-0.386c0.319,0.077,1.127,0.057,1.097-0.021
		c-0.172,0.05,1.098,0.371,1.762,0.227c-0.085-0.235-1.502-0.045-0.893-0.477c-0.547,0.201-0.636-0.032-1.215,0.092
		c0.55-0.203,0.115-0.334,0.52-0.539l-0.956,0.149c-0.032-0.078,1.388-0.275,0.577-0.513c-0.375,0.151-1.42,0.071-1.417,0.329
		l-0.03-0.077c-0.728,0.001-0.287,0.387-1.186,0.312c0.001,0.129,0.177,0.206,0.493,0.153c0.263-0.077,0.288-0.258,0.839-0.335
		c0.263,0.182-0.67,0.026-0.258,0.335c0.204,0.154,1.445-0.252,1.072,0.158l-0.723-0.002c0.001,0.258-0.52,0.283-0.487,0.489
		c-0.429,0.128-0.869-0.128-1.297,0.132c-0.172,0.182,0.182,0.463-0.57,0.391c-0.614-0.333-2.313-0.106-2.943,0.012l-0.54,0.217
		c0.063,0.153,1.062-0.124,0.726,0.115L40.576,28.5l0.057-0.105c-0.289,0.007-0.572,0.142-0.829,0.225
		c0.25-0.212,0.885-0.201,0.731-0.456c-0.414-0.012-0.489-0.105-0.858-0.015c0.08-0.028,0.15-0.061,0.132-0.097
		c-0.839-0.03-0.762,0.381-0.96,0.491c-0.787,0.436,0.873,0.233,0.8,0.52l-2.398,0.409c0.194-0.11,0.393-0.22,0.302-0.32
		c-0.608-0.056-0.039-0.206-0.871-0.097c0.106,0.356-1.016,0.35-1.575,0.633c-0.295-0.115-0.354-0.139,0.245-0.216
		c-0.102-0.229-0.894-0.038-1.184-0.023c-0.157,0.08-0.436,0.151-0.607,0.228c0.256,0.086,0.175,0.247-0.33,0.416l-0.021,0.053
		c0.859-0.049,2.212,0.045,2.713-0.261l-0.134,0.136c1.009,0.085,2.089-0.675,2.598-0.277c-0.02,0.182,0.202,0.02,0.216,0.277
		l0.7-0.278l-0.137,0.132l1.228-0.185l-0.029,0.051l1.355-0.714c-0.012-0.112-0.052-0.143,0.135-0.244
		c0.191-0.073,0.341-0.095,0.475-0.094c0.002,0,0.002,0,0.002-0.002v0.002c0.307,0.004,0.524,0.147,0.905,0.179l-1.148,0.133
		c-0.073,0.198,0.044,0.385,0.621,0.467c-0.229,0.027-0.313,0.184-0.024,0.18c0.026-0.052,0.74-0.189,0.45-0.315
		c1.088-0.167,2.896,0.186,4.526-0.294c-1.174,0.303,0.976,0.187-0.341,0.36c0.945,0.238,0.77-0.357,1.716-0.372
		c0.09,0.104-0.514,0.021-0.714,0.25c1.572,0.016,2.607-0.663,4.135-0.653l0.077,0.234L53.466,28.712z M56.456,28.282l0.888-0.115
		l-0.088-0.003l0.872-0.223c-0.543-0.074-0.912-0.323-0.158-0.472c-0.059,0.1,0.166,0.214-0.095,0.28
		c0.513,0.125,1.631,0.229,1.329-0.121c-0.966,0.37-0.244-0.45-1.002-0.174c0.402-0.247,0.815-0.155,1.2-0.271
		c-0.397,0.208,0.109,0.441,0.72,0.518c0.262-0.066,0.979-0.027,1.417-0.132c-0.162-0.216,0.217-0.35-0.501-0.39
		c0.261-0.064,0.668-0.118,1.127-0.014c-0.182,0.041-0.496,0.075-0.473,0.154c0.299,0.196,0.644,0.179,0.835,0.263l0.452-0.043
		c-0.045-0.018-0.082-0.043-0.11-0.073l0.501-0.203c-0.671,0.115-0.313-0.096-0.309-0.225c-0.012,0.257,0.435,0.026,0.664,0.015
		l-0.505-0.264c0.24-0.14,0.857,0.183,0.728-0.084c-1.064-0.093-1.471-0.038-2.429,0.061l0.395,0.204
		c-1.077,0.173-0.677-0.349-1.891-0.308c-0.5,0.205-1.827,0.067-1.839,0.455c0.148-0.123-0.768-0.319-1.178-0.128
		c-0.446,0.368-1.83,0.475-1.403,0.618c0.374-0.011,0.871-0.226,1.183-0.008l-0.723,0.103l0.484,0.173
		C56.299,27.817,56.331,28.004,56.456,28.282 M72.665,30.257l0.026,0.005c-0.011-0.001-0.021-0.001-0.03-0.001L72.665,30.257z"/>
	<path fill="#7A6946" d="M8.1,35.651c-0.171,0.142-0.665,0.279-0.509,0.429C7.514,35.885,8.455,35.786,8.1,35.651"/>
	<path fill="#7A6946" d="M7.449,35.635c-0.018,0.059,0.032,0.126-0.185,0.202L7.851,35.6L7.449,35.635z"/>
	<path fill="#7A6946" d="M6.373,34.474c-0.267,0.246-0.436,0.392-0.934,0.538c-0.356-0.422,0.761-0.395,0.833-0.913
		c-0.928,0.24-1.06,0.753-1.788,1.037C4.925,35.21,6.47,34.846,6.373,34.474"/>
	<polygon fill="#7A6946" points="6.571,33.738 6.099,34.005 6.16,34.018 6.632,33.751 	"/>
	<path fill="#7A6946" d="M18.748,35.127c0.083,0.144,0.36-0.076,0.52-0.15C19.128,34.997,18.927,34.998,18.748,35.127"/>
	<path fill="#7A6946" d="M119.855,35.781c1.254,0.332,2.505,0.688,3.757,1.065C122.534,36.52,121.542,36.205,119.855,35.781"/>
	<path fill="#7A6946" d="M31.475,31.799c-1.034,0.301-1.458,0.64-2.519,0.874c1.461,0.099,1.783-0.776,3.024-0.622L31.475,31.799z"
		/>
	<path fill="#7A6946" d="M31.301,33.104c-0.224-0.271,0.756-0.461,0.57-0.656c-0.699,0.173-0.287,0.327-0.934,0.396L31.301,33.104z"
		/>
	<polygon fill="#7A6946" points="25.65,28.988 25.949,28.78 25.695,28.88 	"/>
	<polygon fill="#7A6946" points="36.062,32.206 35.954,32.287 36.495,32.316 	"/>
	<path fill="#7A6946" d="M35.845,32.37l0.108-0.083L35.845,32.37z"/>
	<polygon fill="#7A6946" points="25.953,28.286 25.455,28.306 25.24,28.482 	"/>
	<path fill="#7A6946" d="M30.502,29.199l-0.417,0.158C30.167,29.326,30.778,29.36,30.502,29.199"/>
	<polygon fill="#7A6946" points="39.314,31.964 39.821,31.795 39.764,31.771 39.261,31.94 	"/>
	<path fill="#7A6946" d="M33.774,27.919c-0.333-0.19,0.86-0.172,0.213-0.295C33.441,27.73,33.682,27.82,33.774,27.919"/>
	<path fill="#7A6946" d="M40.341,28.736c0.071-0.007,0.145-0.023,0.215-0.055C40.471,28.699,40.399,28.718,40.341,28.736"/>
	<path fill="#7A6946" d="M40.341,28.736c-0.23,0.023-0.469-0.042-0.619,0.041C40.02,28.851,40.12,28.802,40.341,28.736"/>
	<path fill="#7A6946" d="M42.968,28.433l-0.212,0.003c0.202-0.132,0.103-0.107-0.078,0.001c-0.22,0.028-0.201,0.1-0.222,0.151
		l-0.126,0.102l0.172-0.1C42.844,28.561,43.052,28.531,42.968,28.433"/>
	<path fill="#7A6946" d="M52.982,31.607c-0.766-0.046-0.966-0.075-0.935-0.256c-0.725-0.016-0.594,0.285-1.023,0.381
		C51.838,31.65,52.009,31.723,52.982,31.607"/>
	<path fill="#7A6946" d="M51.023,31.733l-0.283,0.03C50.858,31.762,50.946,31.75,51.023,31.733"/>
	<polygon fill="#7A6946" points="39.674,26.79 40.127,26.47 39.954,26.526 	"/>
	<path fill="#7A6946" d="M54.114,31.64c-0.142-0.004-0.367,0.015-0.48-0.042C53.602,31.78,54.256,31.645,54.114,31.64"/>
	<path fill="#7A6946" d="M50.961,28.309c-0.084-0.105-0.573-0.01-0.777-0.039C50.474,28.275,50.729,28.588,50.961,28.309"/>
	<path fill="#7A6946" d="M56.265,30.81c-0.143-0.005-0.366-0.116-0.278-0.268C55.785,30.638,55.521,30.962,56.265,30.81"/>
	<polygon fill="#7A6946" points="52.371,28.261 52.256,28.207 51.736,28.351 	"/>
	<path fill="#7A6946" d="M50.317,25.741c-0.584,0.249,0.981,0.455-0.035,0.697c1.34,0.144-0.122-0.295,0.859-0.318
		C50.564,26.081,50.265,25.831,50.317,25.741"/>
	<path fill="#7A6946" d="M51.142,26.121c0.085,0.006,0.175,0.007,0.272,0.003C51.306,26.119,51.219,26.119,51.142,26.121"/>
	<path fill="#7A6946" d="M59.601,27.107c-0.087,0.026-0.146,0.051-0.198,0.078C59.471,27.165,59.533,27.141,59.601,27.107"/>
	<path fill="#7A6946" d="M54.263,25.783l-0.881,0.362c0.588-0.244,2.095-0.296,1.986-0.609c-0.492-0.045-1.074,0.067-1.31,0.215
		L54.263,25.783z"/>
	<path fill="#7A6946" d="M64.635,31.252l-0.378,0.13l0.475,0.031C64.595,31.368,64.838,31.131,64.635,31.252"/>
	<path fill="#7A6946" d="M64.822,31.419l-0.091-0.005C64.752,31.42,64.779,31.424,64.822,31.419"/>
	<path fill="#7A6946" d="M57.919,27.313c-0.29-0.013-0.52,0.004-0.779,0.07C57.25,27.439,57.97,27.471,57.919,27.313"/>
	<polygon fill="#7A6946" points="67.308,30.77 66.681,30.827 67.366,30.801 	"/>
	<polygon fill="#7A6946" points="70.234,31.316 70.344,31.378 70.863,31.267 70.753,31.206 	"/>
	<path fill="#7A6946" d="M66.368,25.057c-0.433-0.031-0.771,0.257-0.655,0.316l0.841-0.018c-0.216-0.248-0.233,0.009-0.722-0.05
		L66.368,25.057z"/>
	<path fill="#7A6946" d="M91.954,31.763c-0.198,0.152-1.088-0.014-1.123-0.174c0.126-0.06,0.62-0.087,0.322-0.212l-0.746,0.356
		c-0.926-0.324,0.764-0.486,1.246-0.593c-0.964-0.126-1.272,0.121-2.299,0.047c0.301,0.058,0.483,0.173,0.637,0.273
		c0.012,0.29-0.934,0.094-1.62,0.072c0.428,0.154,0.168,0.243-0.156,0.334c-0.059,0.005-0.098,0.019-0.126,0.038l-0.11,0.033
		l0.082,0.004c-0.008,0.032,0.006,0.072,0.063,0.13c0.578-0.046,0.997,0.224,1.365,0.253c-0.327-0.494,1.263-0.019,1.737-0.126
		l0.538-0.005l0.201,0.016c0.035,0.055-0.028,0.113-0.342,0.182c0.263-0.073,1.108,0.028,1.043-0.128l1.937,0.159
		c0.058,0.024,0.115,0.053,0.158,0.091c0.068-0.024,0.081-0.047,0.077-0.072l2.104,0.19l1.056,0.101l0.553,0.055l0.569,0.049
		c1.424,0.119,2.835,0.237,4.227,0.37c-0.409-0.078-0.755-0.219-1.178-0.31c0.675-0.251-0.697-0.122-0.479-0.397
		c0.302-0.081,0.722-0.008,0.966,0.088c0.109-0.139-0.237-0.305-0.176-0.476c-1.048-0.287-1.281,0.408-2.318,0.208
		c0.058-0.173,0.397-0.301-0.292-0.337l0.178-0.023c-1.121,0.101-0.812-0.472-1.593-0.057l0.046-0.253
		c-0.549,0.137-1.489,0.046-2.043,0.029l0.039-0.046c-1.554,0.15-0.862-0.019-2.586-0.048l0.816-0.23
		c-0.578-0.175-0.742,0.137-1.164,0.069c0.037-0.047-0.046-0.243,0.359-0.256l-2.119,0.286
		C91.29,31.607,91.886,31.648,91.954,31.763"/>
	<path fill="#7A6946" d="M89.354,31.187c-0.107-0.021-0.234-0.035-0.382-0.036C89.114,31.17,89.236,31.179,89.354,31.187"/>
	<path fill="#7A6946" d="M103.931,33.263l-0.584-0.057C103.526,33.239,103.714,33.263,103.931,33.263"/>
	<path fill="#7A6946" d="M86.334,31.557c0.351,0.154-0.283,0.17-0.351,0.265l1.289,0.073c0-0.1,0.136-0.202,0.116-0.295
		L86.334,31.557z"/>
	<path fill="#7A6946" d="M87.633,32.104c0.048-0.065,0.19-0.118,0.346-0.167l-0.706-0.043
		C87.271,31.969,87.347,32.041,87.633,32.104"/>
	<polygon fill="#7A6946" points="87.862,26.815 88.096,26.821 88.453,26.767 	"/>
	<path fill="#7A6946" d="M91.463,27.502c-0.265-0.17-0.799-0.096-0.98-0.07C91.091,27.472,90.823,27.509,91.463,27.502"/>
	<polygon fill="#7A6946" points="90.842,25.84 91.438,25.799 91.385,25.765 	"/>
	<path fill="#7A6946" d="M108.347,32.783l0.274,0.024C108.498,32.788,108.416,32.782,108.347,32.783"/>
	<path fill="#7A6946" d="M103.481,32.445c1.326,0.423-0.916,0.149-0.529,0.561l0.751-0.049l-0.073,0.092l0.898,0.061
		c-0.163-0.188-0.3-0.213-0.239-0.386c1.185,0.198,0.353,0.249,1.195,0.571l1.322,0.129l-0.112,0.039
		c0.109,0.011,0.162-0.004,0.203-0.028c1.48,0.155,2.94,0.346,4.394,0.585c0.818,0.012-0.374-0.399,0.266-0.544
		c-0.92-0.181-2.269-0.592-2.409-0.252c0.039-0.043,0.116-0.13-0.064-0.202l-0.585,0.208l0.496,0.17
		c-0.584,0.198-2.317-0.104-2.617-0.318c1.014,0.031,0.566-0.388,1.927-0.002c-0.047-0.098-0.276-0.292,0.043-0.295
		C106.702,32.648,105.244,32.316,103.481,32.445"/>
	<path fill="#7A6946" d="M119.698,35.441l-0.022,0.027C119.708,35.46,119.725,35.451,119.698,35.441"/>
	<path fill="#7A6946" d="M119.181,35.239l-0.878,0.107l1.208,0.328l0.165-0.206c-0.126,0.026-0.585,0.018-0.72-0.122L119.181,35.239
		z"/>
	<path fill="#7A6946" d="M117.346,35.295c0.65,0.073,0.704-0.209,0.403-0.433c0.611,0.034,0.208,0.382,0.693,0.204
		c0.049-0.204-0.692-0.288-0.866-0.295L117.346,35.295z"/>
	<polygon fill="#7A6946" points="112.797,34.022 113.001,33.943 112.574,33.821 	"/>
	<path fill="#7A6946" d="M113.001,33.943l0.423,0.125c-0.008-0.093-0.018-0.185-0.075-0.258L113.001,33.943z"/>
	<path fill="#7A6946" d="M114.529,34.407c0.177,0.064,0.373,0.128,0.614,0.196L114.529,34.407z"/>
	<path fill="#7A6946" d="M114.058,34.221l0.005,0.04l0.467,0.146C114.36,34.344,114.209,34.283,114.058,34.221"/>
	<path fill="#7A6946" d="M113.424,34.068c0.022,0.212,0.054,0.435,0.685,0.522l-0.046-0.33L113.424,34.068z"/>
	<polygon fill="#7A6946" points="95.088,26.487 95.628,26.421 95.575,26.385 95.035,26.452 	"/>
	<path fill="#7A6946" d="M98.124,26.958c0.133-0.021,0.239-0.049,0.332-0.078C98.315,26.889,98.202,26.911,98.124,26.958"/>
	<path fill="#7A6946" d="M100.476,25.795c0.601,0.257-0.882,0.193,0.26,0.382c0.081,0.197-0.479,0.392-1.011,0.252
		c0.059-0.173,0.537-0.068,0.223-0.277c-0.378,0.173-0.5,0.021-0.401,0.299c-0.283,0.061-0.453,0.132-0.604,0.208
		c-0.149,0.076-0.271,0.155-0.486,0.22c0.185-0.011,0.409,0.008,0.663,0.038l0.817,0.094c0.588,0.063,1.204,0.099,1.686-0.03
		c0.544-0.274,0.275-0.74,0.324-1.204C101.879,25.662,100.555,25.492,100.476,25.795"/>
	<path fill="#7A6946" d="M99.557,25.249c-0.236-0.042-0.345-0.038-0.511-0.015C99.067,25.395,99.368,25.242,99.557,25.249"/>
	<path fill="#7A6946" d="M105.791,29.366c0.063-0.06,0.592-0.08,0.495-0.207l-0.798-0.007
		C105.672,29.183,105.726,29.271,105.791,29.366"/>
	<path fill="#7A6946" d="M105.139,29.149l0.35,0.003C105.403,29.137,105.296,29.134,105.139,29.149"/>
	<path fill="#7A6946" d="M105.822,29.411c-0.01-0.015-0.02-0.03-0.031-0.045C105.777,29.379,105.778,29.393,105.822,29.411"/>
	<path fill="#7A6946" d="M116.268,34.963c-0.045,0.121,0.302,0.132,0.475,0.14C116.613,35.056,116.44,34.967,116.268,34.963"/>
	<path fill="#7A6946" d="M128.598,38.495l0.246,0.203C128.767,38.603,128.727,38.556,128.598,38.495"/>
	<path fill="#7A6946" d="M134.385,36.999c0.019-0.02,0.048-0.03,0.085-0.037C134.435,36.965,134.406,36.977,134.385,36.999"/>
	<path fill="#7A6946" d="M134.47,36.961c0.239-0.019,0.774,0.379,1.059,0.32l-0.048,0.034l0.442,0.078
		C135.54,37.25,134.752,36.908,134.47,36.961"/>
	<path fill="#FFFFFF" d="M53.94,5.703c-0.009,0.132-0.095,0.181-0.23,0.171c-0.055-0.004-0.107-0.033-0.186-0.118
		c-0.736-1.194-1.675-1.866-2.73-2.068c-0.271-0.045-0.635,0.065-1.171,0.269c-0.143,0.072-0.322-0.073-0.57-0.464
		c-0.246-0.388-0.337-0.633-0.304-0.738c0.101-0.26,0.938-0.472,1.511-0.436c0.083,0.005,0.165,0.012,0.219,0.041
		c0.958,0.382,2.089,1.441,3.394,3.178C53.925,5.569,53.947,5.624,53.94,5.703"/>
	<path fill="none" stroke="#FFFFFF" stroke-width="0.25" stroke-miterlimit="10" d="M53.94,5.703
		c-0.009,0.132-0.095,0.181-0.23,0.171c-0.055-0.004-0.107-0.033-0.186-0.118c-0.736-1.194-1.675-1.866-2.73-2.068
		c-0.271-0.045-0.635,0.065-1.171,0.269c-0.143,0.072-0.322-0.073-0.57-0.464c-0.246-0.388-0.337-0.633-0.304-0.738
		c0.101-0.26,0.938-0.472,1.511-0.436c0.083,0.005,0.165,0.012,0.219,0.041c0.958,0.382,2.089,1.441,3.394,3.178
		C53.925,5.569,53.947,5.624,53.94,5.703z"/>
</g>
</svg>